<?xml version="1.0" encoding="utf-8"?>
<!-- Generator: Adobe Illustrator 23.0.2, SVG Export Plug-In . SVG Version: 6.00 Build 0)  -->
<svg version="1.1" id="Calque_1" xmlns="http://www.w3.org/2000/svg" xmlns:xlink="http://www.w3.org/1999/xlink" x="0px" y="0px"
	 viewBox="0 0 658.6 170.1" style="enable-background:new 0 0 658.6 170.1;" xml:space="preserve">
<style type="text/css">
	.st0{display:none;}
	.st1{fill:#FFFFFF;}
	.st2{font-family:'LeagueSpartan-Bold';}
	.st3{font-size:99.2804px;}
	.st4{letter-spacing:8.2;}
</style>
<g id="Calque_5">
</g>
<g class="st0">
	
		<image style="display:inline;overflow:visible;enable-background:new    ;" width="208" height="56" xlink:href="C9890F08.jpeg"  transform="matrix(2.5519 0 0 2.5519 17.378 -199.6863)">
	</image>
</g>
<g id="Calque_3">
</g>
<g id="Calque_4">
	<text transform="matrix(1.1 0 0 1 243.2699 131.7262)" class="st1 st2 st3 st4">COGIP</text>
	<path class="st1" d="M167.4,30.7l-6.2,6.1l-22.1,22c-10.3-15-23.5-21.3-38.8-22c-1.1-0.1-2.3-0.1-3.4-0.1c-0.9,0-1.8,0-2.7,0.1
		H19.9c16.4-21.7,43-35.6,74.5-35.6C127.7,1.2,150.9,12.5,167.4,30.7z"/>
	<path class="st1" d="M46,87.8c0,7.9,0.9,15.4,2.5,22.5H5.2C4.2,103,3.6,95.5,3.6,87.8c0-7.8,0.6-15.5,1.6-22.9h43.3
		C46.9,72.1,46,79.8,46,87.8z"/>
	<path class="st1" d="M167.4,78.3v2.5c0,14.7-5.8,28.8-16.2,39.2l0,0c-7.4-10.8-17-15.4-28-16c-0.1,0-0.1,0-0.1,0
		c-0.8,0-1.6-0.1-2.5-0.1c-0.7,0-1.3,0-2,0.1H87.7V78.3L167.4,78.3L167.4,78.3z"/>
	<path class="st1" d="M143.6,136.4C128,159,113.7,169,87.7,169c-27.6,0-52-12.8-67.4-32.5H143.6z"/>
</g>
</svg>
