<svg xmlns="http://www.w3.org/2000/svg" width="220.2" height="35" viewBox="0 0 220.2 35"><rect class="svg__rect" x="0" y="0" width="58.75" height="35" fill="#E46C17"/><rect class="svg__rect" x="56.75" y="0" width="163.45" height="35" fill="#A7BFC1"/><path class="svg__text" d="M15.69 22L14.22 22L14.22 13.47L16.14 13.47L18.60 20.01L21.06 13.47L22.97 13.47L22.97 22L21.49 22L21.49 19.19L21.64 15.43L19.12 22L18.06 22L15.55 15.43L15.69 19.19L15.69 22ZM30.01 22L26.95 13.47L28.57 13.47L30.72 20.14L32.89 13.47L34.51 13.47L31.44 22L30.01 22ZM38.19 18.19L38.19 18.19L38.19 17.39Q38.19 16.19 38.62 15.27Q39.05 14.35 39.85 13.85Q40.65 13.35 41.70 13.35L41.70 13.35Q43.11 13.35 43.97 14.12Q44.83 14.89 44.97 16.29L44.97 16.29L43.50 16.29Q43.39 15.37 42.96 14.96Q42.53 14.55 41.70 14.55L41.70 14.55Q40.73 14.55 40.21 15.26Q39.69 15.96 39.68 17.33L39.68 17.33L39.68 18.09Q39.68 19.47 40.18 20.20Q40.67 20.92 41.63 20.92L41.63 20.92Q42.50 20.92 42.94 20.53Q43.38 20.14 43.50 19.22L43.50 19.22L44.97 19.22Q44.84 20.59 43.97 21.35Q43.09 22.12 41.63 22.12L41.63 22.12Q40.61 22.12 39.83 21.63Q39.06 21.15 38.63 20.26Q38.21 19.37 38.19 18.19Z" fill="#FFFFFF"/><path class="svg__text" d="M72.36 22L69.93 22L73.64 13.60L75.98 13.60L79.70 22L77.23 22L76.57 20.37L73.02 20.37L72.36 22ZM74.79 15.93L73.71 18.61L75.87 18.61L74.79 15.93ZM86.23 22L83.85 22L83.85 13.60L87.70 13.60Q88.84 13.60 89.68 13.98Q90.51 14.35 90.97 15.06Q91.43 15.76 91.43 16.71L91.43 16.71Q91.43 17.62 91.00 18.30Q90.57 18.98 89.78 19.36L89.78 19.36L91.59 22L89.05 22L87.53 19.77L86.23 19.77L86.23 22ZM86.23 15.47L86.23 17.93L87.55 17.93Q88.28 17.93 88.65 17.61Q89.03 17.29 89.03 16.71L89.03 16.71Q89.03 16.12 88.65 15.79Q88.28 15.47 87.55 15.47L87.55 15.47L86.23 15.47ZM95.79 17.80L95.79 17.80Q95.79 16.54 96.39 15.54Q96.98 14.55 98.03 13.99Q99.09 13.43 100.40 13.43L100.40 13.43Q101.56 13.43 102.48 13.84Q103.40 14.25 104.02 15.02L104.02 15.02L102.51 16.39Q101.69 15.40 100.53 15.40L100.53 15.40Q99.84 15.40 99.31 15.70Q98.78 16 98.48 16.54Q98.18 17.09 98.18 17.80L98.18 17.80Q98.18 18.51 98.48 19.05Q98.78 19.60 99.31 19.90Q99.84 20.20 100.53 20.20L100.53 20.20Q101.69 20.20 102.51 19.22L102.51 19.22L104.02 20.58Q103.41 21.35 102.48 21.76Q101.56 22.17 100.40 22.17L100.40 22.17Q99.09 22.17 98.03 21.61Q96.98 21.05 96.39 20.05Q95.79 19.06 95.79 17.80ZM110.93 22L108.56 22L108.56 13.60L110.93 13.60L110.93 16.76L114.17 16.76L114.17 13.60L116.55 13.60L116.55 22L114.17 22L114.17 18.72L110.93 18.72L110.93 22ZM124.09 22L121.71 22L121.71 13.60L124.09 13.60L124.09 22ZM131.06 15.48L128.47 15.48L128.47 13.60L135.99 13.60L135.99 15.48L133.43 15.48L133.43 22L131.06 22L131.06 15.48ZM147.11 22L140.37 22L140.37 13.60L146.96 13.60L146.96 15.44L142.72 15.44L142.72 16.85L146.45 16.85L146.45 18.63L142.72 18.63L142.72 20.17L147.11 20.17L147.11 22ZM151.49 17.80L151.49 17.80Q151.49 16.54 152.08 15.54Q152.68 14.55 153.73 13.99Q154.79 13.43 156.10 13.43L156.10 13.43Q157.26 13.43 158.18 13.84Q159.10 14.25 159.72 15.02L159.72 15.02L158.21 16.39Q157.39 15.40 156.23 15.40L156.23 15.40Q155.54 15.40 155.01 15.70Q154.47 16 154.18 16.54Q153.88 17.09 153.88 17.80L153.88 17.80Q153.88 18.51 154.18 19.05Q154.47 19.60 155.01 19.90Q155.54 20.20 156.23 20.20L156.23 20.20Q157.39 20.20 158.21 19.22L158.21 19.22L159.72 20.58Q159.11 21.35 158.18 21.76Q157.26 22.17 156.10 22.17L156.10 22.17Q154.79 22.17 153.73 21.61Q152.68 21.05 152.08 20.05Q151.49 19.06 151.49 17.80ZM166.05 15.48L163.46 15.48L163.46 13.60L170.99 13.60L170.99 15.48L168.42 15.48L168.42 22L166.05 22L166.05 15.48ZM175.29 18.26L175.29 18.26L175.29 13.60L177.67 13.60L177.67 18.19Q177.67 20.20 179.26 20.20L179.26 20.20Q180.84 20.20 180.84 18.19L180.84 18.19L180.84 13.60L183.19 13.60L183.19 18.26Q183.19 20.13 182.15 21.15Q181.11 22.17 179.24 22.17L179.24 22.17Q177.36 22.17 176.32 21.15Q175.29 20.13 175.29 18.26ZM190.65 22L188.27 22L188.27 13.60L192.12 13.60Q193.26 13.60 194.10 13.98Q194.93 14.35 195.39 15.06Q195.85 15.76 195.85 16.71L195.85 16.71Q195.85 17.62 195.42 18.30Q194.99 18.98 194.20 19.36L194.20 19.36L196.01 22L193.47 22L191.95 19.77L190.65 19.77L190.65 22ZM190.65 15.47L190.65 17.93L191.97 17.93Q192.70 17.93 193.07 17.61Q193.45 17.29 193.45 16.71L193.45 16.71Q193.45 16.12 193.07 15.79Q192.70 15.47 191.97 15.47L191.97 15.47L190.65 15.47ZM207.38 22L200.64 22L200.64 13.60L207.23 13.60L207.23 15.44L202.99 15.44L202.99 16.85L206.72 16.85L206.72 18.63L202.99 18.63L202.99 20.17L207.38 20.17L207.38 22Z" fill="#005384" x="69.75"/></svg>